<svg xmlns="http://www.w3.org/2000/svg" width="20.315" height="12.005" viewBox="0 0 20.315 12.005">
  <defs>
    <style>
      .cls-1 {
        fill-rule: evenodd;
        fill: #CAD0DC;
      }
    </style>
  </defs>
  <path
    class="cls-1"
    d="M10.158,98.725c-3.881,0-7.4,2.105-10,5.525a.792.792,0,0,0,0,.952c2.6,3.424,6.117,5.529,10,5.529,3.466,0,6.644-1.679,9.3-4.662.133-.146.421-.5.7-.863a.792.792,0,0,0,0-.952C17.559,100.83,14.039,98.725,10.158,98.725Zm.278,10.23A4.236,4.236,0,1,1,14.421,105,4.257,4.257,0,0,1,10.436,108.955ZM10.307,107a2.281,2.281,0,1,1,2.148-2.13A2.287,2.287,0,0,1,10.307,107Z"
    transform="translate(0 -98.725)"/>
</svg>
