<svg xmlns="http://www.w3.org/2000/svg" width="14.987" height="13.775" viewBox="0 0 14.987 13.775">
  <defs>
    <style>
      .cls-1 {
        fill-rule: evenodd;
        fill: #CAD0DC;
      }
    </style>
  </defs>
  <g id="Grupo_971" data-name="Grupo 971" transform="translate(-2 -3.002)">
    <path id="Caminho_856" data-name="Caminho 856" class="cls-1" d="M3.808,3,16.524,15.717h0l-1.06,1.06-2.516-2.516a8.077,8.077,0,0,1-3.457.728A7.827,7.827,0,0,1,2.078,9.981L2,9.745l.079-.237A8.111,8.111,0,0,1,4.713,6.024L2.749,4.06Zm8,10.116L10.46,11.771a2.214,2.214,0,0,1-.966.222A2.262,2.262,0,0,1,7.246,9.745a2.213,2.213,0,0,1,.222-.966L5.774,7.085a6.4,6.4,0,0,0-2.188,2.66,6.223,6.223,0,0,0,5.908,3.747A6.938,6.938,0,0,0,11.807,13.117Z"/>
    <path id="Caminho_857" data-name="Caminho 857" class="cls-1" d="M9.5,5.2A8.736,8.736,0,0,1,11.373,5a7.827,7.827,0,0,1,7.415,5.009l.078.237-.079.237a7.915,7.915,0,0,1-1.531,2.47l-1.043-1.043a6.439,6.439,0,0,0,1.067-1.664A6.223,6.223,0,0,0,11.373,6.5q-.284,0-.551.019Z" transform="translate(-1.88 -0.501)"/>
  </g>
</svg>
